<?xml version="1.0" standalone="no"?>
<!DOCTYPE svg PUBLIC "-//W3C//DTD SVG 20010904//EN"
 "http://www.w3.org/TR/2001/REC-SVG-20010904/DTD/svg10.dtd">
<svg version="1.0" xmlns="http://www.w3.org/2000/svg"
 width="32.000000pt" height="32.000000pt" viewBox="0 0 32.000000 32.000000"
 preserveAspectRatio="xMidYMid meet">
<metadata>
Created by potrace 1.16, written by Peter Selinger 2001-2019
</metadata>
<g transform="translate(0.000000,32.000000) scale(0.100000,-0.100000)"
fill="#000000" stroke="none">
<path d="M10 160 c0 -82 3 -100 15 -100 11 0 15 11 15 40 0 29 4 40 15 40 8 0
24 -18 35 -40 11 -22 27 -40 35 -40 13 0 12 7 -5 40 l-20 40 20 20 c24 24 25
48 4 78 -12 18 -25 22 -65 22 l-49 0 0 -100z"/>
</g>
</svg>
