<?xml version="1.0" standalone="no"?>
<!DOCTYPE svg PUBLIC "-//W3C//DTD SVG 20010904//EN"
 "http://www.w3.org/TR/2001/REC-SVG-20010904/DTD/svg10.dtd">
<svg version="1.0" xmlns="http://www.w3.org/2000/svg"
 width="1200.000000pt" height="1200.000000pt" viewBox="0 0 1200.000000 1200.000000"
 preserveAspectRatio="xMidYMid meet">

<g transform="translate(0.000000,1200.000000) scale(0.100000,-0.100000)"
fill="#000000" stroke="none">
<path d="M3460 6553 c-40 -15 -40 -18 -40 -575 0 -620 -12 -558 113 -558 50 0
78 4 86 13 7 9 12 89 13 223 l3 209 148 -211 c88 -126 158 -216 173 -223 31
-14 189 -15 215 -1 29 16 24 30 -33 106 -99 130 -248 337 -248 344 0 5 12 11
28 15 47 12 128 63 170 109 71 77 95 223 57 353 -21 76 -64 128 -136 168 l-54
30 -240 2 c-132 1 -247 0 -255 -4z m405 -217 c86 -36 104 -189 26 -226 -14 -7
-79 -15 -143 -18 l-118 -4 0 124 c0 69 3 128 7 131 13 13 193 7 228 -7z"/>
<path d="M5917 6548 c-17 -12 -18 -50 -24 -560 l-6 -547 28 -11 c16 -6 62 -9
104 -8 l76 3 7 85 c3 47 6 297 7 557 1 355 -2 474 -11 479 -24 15 -162 16
-181 2z"/>
<path d="M8121 6541 c-10 -10 -27 -45 -36 -77 -16 -59 -34 -113 -144 -454 -57
-175 -124 -391 -158 -507 -22 -74 -13 -83 89 -83 44 0 88 4 98 10 17 9 44 78
70 178 l11 42 174 0 174 0 30 -97 c41 -128 46 -133 138 -133 78 0 113 11 113
36 0 33 -268 857 -330 1014 -33 85 -41 90 -132 90 -63 0 -82 -4 -97 -19z m109
-372 c0 -5 20 -62 44 -127 23 -64 46 -129 50 -144 l6 -28 -105 0 c-58 0 -105
3 -105 8 0 4 20 69 45 146 25 76 45 145 45 153 0 8 5 11 10 8 6 -3 10 -11 10
-16z"/>
</g>
</svg>
