<?xml version="1.0" standalone="no"?>
<!DOCTYPE svg PUBLIC "-//W3C//DTD SVG 20010904//EN"
 "http://www.w3.org/TR/2001/REC-SVG-20010904/DTD/svg10.dtd">
<svg version="1.0" xmlns="http://www.w3.org/2000/svg"
 width="920.000000pt" height="626.000000pt" viewBox="0 0 920.000000 626.000000"
 preserveAspectRatio="xMidYMid meet">

<g transform="translate(0.000000,626.000000) scale(0.100000,-0.100000)"
fill="#000000" stroke="none">
<path d="M4540 6250 c-8 -5 -37 -17 -65 -27 -45 -16 -130 -97 -812 -778 -613
-612 -765 -769 -782 -808 -57 -126 -44 -235 41 -344 126 -163 336 -188 485
-56 12 11 205 199 428 419 224 219 411 401 416 402 5 2 9 0 9 -5 0 -4 1 -699
3 -1543 l2 -1535 31 -65 c62 -131 183 -205 324 -198 162 8 291 118 320 275 7
38 10 557 10 1565 0 829 3 1508 7 1508 4 0 197 -189 428 -419 449 -448 465
-461 579 -479 208 -33 399 127 399 333 0 137 6 130 -521 658 -823 824 -1027
1026 -1050 1043 -70 49 -210 79 -252 54z"/>
<path d="M3840 4639 c-212 -210 -406 -398 -432 -419 -57 -46 -142 -80 -208
-83 -73 -3 -48 -16 37 -19 24 -1 53 3 65 9 13 6 42 18 65 28 42 17 141 112
659 624 172 170 234 243 206 240 -4 0 -180 -171 -392 -380z"/>
<path d="M6351 4355 c-34 -64 -95 -131 -147 -161 -48 -28 -152 -63 -171 -57
-6 2 -14 0 -17 -5 -5 -8 56 -7 119 2 17 2 35 4 41 5 6 1 21 10 34 21 13 11 26
20 29 20 19 1 134 130 116 130 -3 0 -1 9 5 21 11 20 23 69 18 69 -2 0 -14 -20
-27 -45z"/>
<path d="M1788 2557 c-109 -46 -191 -136 -216 -239 -17 -67 -17 -1980 0 -2045
26 -103 110 -200 205 -236 26 -10 56 -23 65 -28 25 -13 5515 -12 5523 1 3 6
13 10 22 10 25 0 97 39 135 74 49 44 93 113 106 166 16 64 17 1987 1 2062 -30
138 -163 247 -312 256 -85 5 -137 -9 -206 -56 -54 -37 -122 -122 -137 -172 -4
-14 -10 -389 -13 -835 l-6 -810 -2347 -3 -2348 -2 0 768 c0 510 -4 788 -11
828 -20 112 -91 204 -197 256 -71 34 -188 36 -264 5z"/>
<path d="M4965 2008 c-2 -7 -9 -31 -14 -53 -13 -49 -56 -118 -102 -164 -36
-35 -134 -87 -183 -95 -43 -8 -51 -22 -13 -24 51 -4 119 21 181 67 81 60 117
120 132 221 3 19 7 41 9 48 2 6 2 12 -1 12 -2 0 -7 -6 -9 -12z"/>
<path d="M7644 245 c-20 -81 -132 -197 -221 -230 l-38 -14 37 0 c74 -2 143 45
187 128 17 32 31 66 31 75 0 9 4 16 8 16 4 0 9 11 10 25 2 32 -6 32 -14 0z"/>
</g>
</svg>
